<svg width="16" height="16" viewBox="0 0 16 16" fill="none" xmlns="http://www.w3.org/2000/svg">
<path d="M13.2667 9H2.73333C1.73333 9 1.33333 9.42667 1.33333 10.4867V13.18C1.33333 14.24 1.73333 14.6667 2.73333 14.6667H13.2667C14.2667 14.6667 14.6667 14.24 14.6667 13.18V10.4867C14.6667 9.42667 14.2667 9 13.2667 9Z" fill="white" stroke="#65717C" stroke-width="1.5" stroke-linecap="round" stroke-linejoin="round"/>
<path d="M13.2667 1.33333H2.73333C1.73333 1.33333 1.33333 1.75999 1.33333 2.81999V5.51333C1.33333 6.57333 1.73333 6.99999 2.73333 6.99999H13.2667C14.2667 6.99999 14.6667 6.57333 14.6667 5.51333V2.81999C14.6667 1.75999 14.2667 1.33333 13.2667 1.33333Z" fill="white" stroke="#65717C" stroke-width="1.5" stroke-linecap="round" stroke-linejoin="round"/>
</svg>
